<?xml version="1.0" encoding="utf-8"?>
<!-- Generator: Adobe Illustrator 19.2.0, SVG Export Plug-In . SVG Version: 6.00 Build 0)  -->
<svg version="1.1" id="Layer_1" xmlns="http://www.w3.org/2000/svg" xmlns:xlink="http://www.w3.org/1999/xlink" x="0px" y="0px"
	 viewBox="0 0 57.7 60.1" style="enable-background:new 0 0 57.7 60.1;" xml:space="preserve">
<style type="text/css">
	.st0{fill:#515151;}
</style>
<path class="st0" d="M28.8,4C14.1,4,2.2,16,2.2,30.7c0,11.8,7.6,21.8,18.2,25.3c1.3,0.2,1.8-0.6,1.8-1.3c0-0.6,0-2.3,0-4.5
	c-7.4,1.6-9-3.6-9-3.6c-1.2-3.1-3-3.9-3-3.9c-2.4-1.7,0.2-1.6,0.2-1.6c2.7,0.2,4.1,2.7,4.1,2.7c2.4,4.1,6.2,2.9,7.8,2.2
	c0.2-1.7,0.9-2.9,1.7-3.6c-5.9-0.7-12.1-3-12.1-13.2c0-2.9,1-5.3,2.7-7.2c-0.3-0.7-1.2-3.4,0.3-7.1c0,0,2.2-0.7,7.3,2.7
	c2.1-0.6,4.4-0.9,6.7-0.9c2.3,0,4.5,0.3,6.7,0.9c5.1-3.5,7.3-2.7,7.3-2.7c1.5,3.7,0.5,6.4,0.3,7.1c1.7,1.9,2.7,4.2,2.7,7.2
	c0,10.2-6.2,12.5-12.2,13.2c1,0.8,1.8,2.4,1.8,4.9c0,3.6,0,6.4,0,7.3c0,0.7,0.5,1.5,1.8,1.3c10.6-3.5,18.2-13.5,18.2-25.3
	C55.5,16,43.6,4,28.8,4"/>
</svg>
