<?xml version="1.0" encoding="utf-8"?>
<!-- Generator: Adobe Illustrator 19.2.0, SVG Export Plug-In . SVG Version: 6.00 Build 0)  -->
<svg version="1.1" id="Layer_1" xmlns="http://www.w3.org/2000/svg" xmlns:xlink="http://www.w3.org/1999/xlink" x="0px" y="0px"
	 viewBox="0 0 57.7 60.1" style="enable-background:new 0 0 57.7 60.1;" xml:space="preserve">
<style type="text/css">
	.st0{fill:#515151;}
</style>
<g>
	<path class="st0" d="M27.7,5.6c0.4,0.3,0.9,0.7,1.5,1.2c0.5,0.6,1.1,1.2,1.6,2c0.5,0.8,0.9,1.7,1.3,2.7c0.3,1,0.5,2.2,0.5,3.6
		c0,2.5-0.6,4.6-1.7,6.1c-0.5,0.7-1.1,1.4-1.7,2c-0.7,0.6-1.4,1.3-2.1,1.9c-0.4,0.4-0.8,0.9-1.2,1.5c-0.4,0.6-0.6,1.2-0.6,2
		c0,0.7,0.2,1.4,0.7,1.8c0.4,0.5,0.7,0.9,1.1,1.2l2.4,2c1.5,1.2,2.8,2.6,3.9,4c1.1,1.5,1.6,3.5,1.7,5.9c0,3.4-1.5,6.5-4.6,9.1
		c-3.1,2.7-7.7,4.2-13.6,4.3c-5,0-8.7-1.1-11.1-3.2C3.2,51.9,2,49.6,2,46.9c0-1.3,0.4-2.8,1.2-4.4c0.8-1.6,2.2-3,4.2-4.2
		c2.3-1.3,4.7-2.2,7.2-2.6c2.5-0.4,4.6-0.6,6.2-0.6c-0.5-0.7-1-1.4-1.4-2.2c-0.5-0.7-0.7-1.6-0.7-2.7c0-0.6,0.1-1.2,0.3-1.6
		c0.2-0.4,0.3-0.8,0.4-1.2c-0.8,0.1-1.6,0.1-2.3,0.1c-3.8,0-6.7-1.2-8.6-3.6c-2.1-2.2-3.1-4.7-3.1-7.6c0-3.5,1.5-6.6,4.4-9.5
		c2-1.7,4.1-2.7,6.3-3.3C18.4,3.2,20.4,3,22.3,3h14.2l-4.4,2.6H27.7z M30.4,46.4c0-1.8-0.6-3.4-1.8-4.7c-1.2-1.3-3.2-2.8-5.8-4.7
		c-0.5,0-1-0.1-1.6-0.1c-0.4,0-1.3,0-2.8,0.1c-1.5,0.2-3,0.5-4.5,1c-0.4,0.1-0.9,0.3-1.5,0.6c-0.7,0.3-1.3,0.7-2,1.3
		c-0.7,0.6-1.2,1.3-1.7,2.1c-0.5,0.9-0.8,2-0.8,3.3c0,2.5,1.1,4.5,3.4,6.2c2.1,1.6,5.1,2.4,8.8,2.5c3.3,0,5.9-0.8,7.7-2.2
		C29.6,50.5,30.4,48.6,30.4,46.4z M20.5,25.6c1.9-0.1,3.4-0.7,4.7-2c0.6-0.9,1-1.8,1.2-2.8c0.1-0.9,0.2-1.7,0.2-2.4
		c0-2.8-0.7-5.6-2.1-8.5c-0.7-1.4-1.6-2.5-2.7-3.3c-1.1-0.8-2.4-1.2-3.9-1.3c-1.9,0-3.5,0.8-4.8,2.3C12,9.3,11.5,11,11.5,13
		c0,2.6,0.7,5.2,2.3,8c0.7,1.3,1.7,2.4,2.8,3.3C17.7,25.2,19.1,25.6,20.5,25.6z"/>
	<polygon class="st0" points="55.7,10.8 48.2,10.8 48.2,3.3 44.6,3.3 44.6,10.8 37.2,10.8 37.2,14.4 44.6,14.4 44.6,21.8 48.2,21.8 
		48.2,14.4 55.7,14.4 	"/>
</g>
</svg>
